<svg width="33" height="20" viewBox="0 0 33 20" fill="none" xmlns="http://www.w3.org/2000/svg">
<g clip-path="url(#clip0_308_701)">
<path d="M13.0394 8.94143C13.0394 8.94143 16.0963 8.71957 16.0963 5.21509C16.0963 1.71037 13.5954 0 10.4275 0H0.00317383V19.5849H10.4275C10.4275 19.5849 16.7912 19.7814 16.7912 13.8043C16.7912 13.8044 17.0686 8.94143 13.0394 8.94143ZM9.67716 3.48099H10.4275C10.4275 3.48099 11.8445 3.48099 11.8445 5.51871C11.8445 7.55619 11.0111 7.85159 10.0659 7.85159H4.59626V3.48099H9.67716ZM10.1329 16.104H4.59626V10.8702H10.4275C10.4275 10.8702 12.5394 10.8431 12.5394 13.5598C12.5394 15.8506 10.962 16.0867 10.1329 16.104ZM25.2782 4.98297C17.5743 4.98297 17.5811 12.5081 17.5811 12.5081C17.5811 12.5081 17.0526 19.9946 25.2782 19.9946C25.2782 19.9946 32.1329 20.3774 32.1329 14.7866H28.6076C28.6076 14.7866 28.7252 16.892 25.3958 16.892C25.3958 16.892 21.87 17.123 21.87 13.4847H32.2504C32.2504 13.4846 33.3862 4.98297 25.2782 4.98297ZM21.8312 10.8702C21.8312 10.8702 22.2617 7.85153 25.3565 7.85153C28.4507 7.85153 28.412 10.8702 28.412 10.8702H21.8312ZM29.2332 3.56553H20.9682V1.1538H29.2332V3.56553Z" fill="white"/>
</g>
<defs>
<clipPath id="clip0_308_701">
<rect width="32.3077" height="20" fill="white"/>
</clipPath>
</defs>
</svg>
