<svg width="124" height="120" viewBox="0 0 124 120" fill="none" xmlns="http://www.w3.org/2000/svg">
<path d="M123.496 67.3887C122.085 68.0685 122.566 69.1539 122.85 70.1078C123.014 70.667 122.949 70.963 122.741 71.5222C122.227 72.8379 121.516 73.9563 120.564 74.965C120.203 75.3377 120.105 75.8421 119.952 76.3026C119.766 76.8947 119.853 77.6073 119.077 77.8814C118.989 77.9143 118.88 78.1775 118.924 78.2433C119.591 79.2849 118.584 79.4384 118.07 79.6796C116.43 80.458 115.117 81.7518 113.444 82.4535C112.711 82.7605 112.831 83.2758 113.739 83.9666C113.4 84.4051 112.415 84.2407 112.612 85.2055C112.667 85.4467 112.175 85.5344 111.923 85.677C111.267 86.0717 110.457 86.3458 110.589 87.3764C110.622 87.6176 110.392 87.7163 110.228 87.804C108.368 88.9004 106.826 90.4354 105.054 91.6415C103.457 92.716 101.827 93.4725 99.8039 92.8804C98.0975 92.387 96.3694 92.9024 94.6849 93.1436C92.9239 93.3958 91.1519 93.3848 89.4018 93.637C88.494 93.7685 87.5971 93.9988 86.6455 93.944C86.0877 93.9111 85.6283 94.3058 85.4204 94.865C85.2345 95.3583 85.0157 95.7859 84.3704 95.6653C84.0641 96.4986 82.6969 96.5644 83.0031 97.9678C83.2656 99.1629 82.1937 100.106 81.614 101.115C80.9796 102.2 79.9733 103.011 79.4373 104.206C79.1311 104.886 78.2561 105.292 77.6982 105.884C76.4404 107.222 75.5434 108.768 75.1059 110.588C74.8543 111.662 74.2965 112.616 73.323 113.197C72.8308 113.493 72.4261 113.789 72.262 114.359C72.2183 114.502 72.1745 114.71 72.0651 114.743C70.6651 115.335 69.8557 116.64 68.7181 117.55C67.2196 118.745 65.3273 118.8 63.5116 118.898C62.9756 118.931 62.3959 118.822 62.0787 118.284C61.7834 117.791 61.4444 117.923 61.0834 118.164C59.8912 118.986 58.5786 119.096 57.1676 119.107C56.2707 119.107 55.3956 119.655 54.444 119.249C54.1706 119.129 53.919 119.381 53.6674 119.567C52.8908 120.159 52.6283 120.17 52.1033 119.436C51.7533 118.942 51.4361 118.833 50.9001 118.877C49.9266 118.953 48.9422 118.964 47.9687 119.085C46.8421 119.227 45.7155 118.986 44.6436 118.646C44.217 118.515 43.9326 118.372 43.6263 118.778C43.3966 119.074 43.1122 119.216 42.7185 119.118C41.0012 118.712 39.273 119.096 37.5558 119.019C36.451 118.964 35.9807 118.668 35.9588 117.725C35.8713 114.568 35.3025 111.541 33.5853 108.778C34.6462 108.417 35.4338 108.614 35.9588 109.535C36.6698 109.075 36.4838 108.526 36.2432 108.055C35.9041 107.386 35.5103 106.772 35.6744 105.972C35.6963 105.84 35.6744 105.654 35.5978 105.544C34.3837 103.658 33.979 101.422 32.9946 99.437C32.8633 99.1739 32.6774 98.9436 32.5024 98.7024C32.1852 98.2748 31.868 98.209 31.3758 98.516C30.3695 99.13 29.8007 99.0642 29.1444 98.1104C28.696 97.4525 28.171 97.1894 27.4381 97.1455C26.6396 97.0907 25.8083 97.0797 25.8192 95.9175C25.8192 95.6982 25.5786 95.6324 25.4255 95.5228C23.8832 94.4264 22.7348 93.0668 21.9472 91.2797C21.4113 90.0517 20.4378 88.9882 19.519 87.9575C18.644 86.9707 17.572 86.1155 17.2329 84.756C17.047 84.0214 16.4892 83.7582 15.8329 83.6047C14.4766 83.2868 13.4265 82.6837 13.35 81.1049C13.3281 80.6334 13.0546 80.5348 12.6718 80.5348C11.7311 80.5348 11.053 79.855 10.2873 79.4712C9.67481 79.1642 9.20445 78.4954 8.96382 77.7499C8.25285 75.5351 7.51998 73.3313 7.70592 70.9411C7.74967 70.349 7.70592 69.757 7.70592 69.1539C7.69498 67.5532 7.6841 67.5751 6.05434 67.1914C4.70897 66.8734 3.39638 66.4568 2.06194 66.1169C1.38379 65.9524 1.02284 65.5796 1.04472 64.8779C1.06659 64.2858 0.990002 63.7047 1.15407 63.1127C1.4494 62.0163 1.59162 60.8869 1.86507 59.7796C2.31353 57.9705 2.90418 56.2272 4.74177 55.2952C4.99334 55.5803 4.73084 55.8763 4.81834 56.1614C4.93866 56.5561 5.15741 56.8192 5.56212 56.589C6.64498 55.964 7.79346 56.589 8.89819 56.3478C9.3029 56.2601 9.63102 56.589 9.90447 56.885C10.2326 57.2359 10.5498 57.5977 10.9217 58.0143C11.4467 57.3784 11.4795 56.8192 10.8561 56.3149C9.70758 55.3939 9.42324 54.2317 9.88264 52.8721C10.0576 52.3568 10.0576 51.9402 9.76227 51.4687C9.46695 51.0192 9.32477 50.5477 9.36852 49.9447C9.42321 49.0566 8.41693 48.5194 8.36224 47.5984C8.36224 47.5874 8.17631 47.5545 8.09974 47.5874C8.02317 47.6203 7.91376 47.7299 7.9247 47.7957C7.95751 48.1904 8.05593 48.5742 8.045 48.9689C8.01218 50.3504 7.30126 50.9973 5.97777 50.756C5.45274 50.6574 5.01517 50.756 4.55577 50.9315C3.56042 51.3152 2.72919 51.0082 2.22604 50.0653C1.97447 49.5938 1.71189 49.1114 1.54782 48.6071C1.41657 48.2014 1.21974 47.9492 0.847843 47.7299C0.0493693 47.2365 -0.213193 46.2607 0.180575 45.581C0.508714 44.9998 1.48225 44.8135 2.29167 45.1862C2.60887 45.3288 2.90418 45.5152 3.23232 45.6906C3.6589 45.6577 3.57141 45.1753 3.79017 44.9341C4.53395 44.1118 4.85115 44.0679 5.76994 44.7586C6.1309 45.0218 6.40432 45.4384 6.84184 44.8463C7.38874 44.1227 7.44342 43.4539 6.89652 43.0153C6.3715 42.5877 5.6277 42.511 5.03705 41.9518C5.63864 41.3817 6.48087 40.976 6.33867 39.9892C6.33867 39.9234 6.45903 39.7809 6.51372 39.7809C7.64033 39.8138 7.87001 38.6187 8.67942 38.1801C9.77322 37.5771 10.2654 36.6013 9.89352 35.1759C9.33568 33.005 11.1733 30.0995 13.339 29.3211C14.2578 28.9921 15.1219 28.5645 15.8438 27.808C16.7298 26.887 17.8783 26.2621 19.1799 26.0537C19.9784 25.9222 20.6675 25.6042 21.3347 25.1437C22.4613 24.3762 23.6317 23.7842 25.1083 23.6855C26.0709 23.6197 27.1428 23.3566 28.0506 22.9728C28.7616 22.6658 29.4288 22.5781 30.1507 22.5342C32.0649 22.4246 33.8587 21.8545 35.6416 21.2076C35.9916 21.076 36.3525 20.78 36.7572 21.076C37.6104 21.701 38.5621 21.4378 39.4809 21.3391C40.159 21.2624 40.8371 21.1199 41.559 20.9993C41.5262 20.4291 41.5153 19.8919 41.4387 19.3546C41.3294 18.5762 41.4606 18.006 41.9966 17.3153C42.806 16.2737 42.9263 14.8374 43.0575 13.5326C43.145 12.5678 43.4513 11.7126 43.7685 10.8245C43.867 10.5394 43.9982 10.2324 44.2498 10.1009C45.8686 9.25661 46.8859 7.63391 48.6469 6.91028C49.8938 6.39496 51.0423 5.52879 51.8626 4.36659C52.1251 3.99381 52.4424 3.70874 52.8143 3.43463C53.6893 2.79871 54.5753 2.19568 55.3081 1.3624C56.3144 0.222127 57.7582 0.145378 59.1474 0.25502C59.9021 0.320805 60.6568 0.38659 61.3459 0.17827C62.7022 -0.238368 63.971 0.17827 65.2617 0.38659C66.1258 0.529124 66.9789 0.836121 67.668 1.45012C69.0025 2.64521 70.6979 3.2921 72.1854 4.25695C73.2683 4.95865 74.6575 5.21083 75.9153 5.63843C76.6372 5.87965 77.2498 6.20857 77.6982 6.87739C78.1357 7.53524 78.6935 8.08345 79.3608 8.54394C79.7655 8.82901 80.1046 9.19083 80.3561 9.64036C80.7171 10.2872 81.0999 10.8903 81.8765 11.1863C82.314 11.3508 82.6641 11.7564 82.8828 12.2389C83.0141 12.513 83.2219 12.7542 83.5828 12.6336C84.1078 12.4582 84.1516 12.7542 84.1735 13.1599C84.1954 13.4888 84.436 13.7081 84.7423 13.7629C85.9017 13.9602 86.2954 14.9251 86.6017 15.8132C86.8205 16.4382 87.1267 16.7123 87.7065 16.8109C89.0518 17.0412 90.3535 17.3482 91.7754 17.1947C93.8099 16.9864 95.6693 17.6771 97.0037 19.3217C98.0757 20.6374 99.3336 21.4707 100.996 21.9531C103.61 22.7097 105.36 24.4859 106.29 27.1063C106.793 28.5097 107.143 29.9351 107.493 31.3823C107.592 31.777 107.504 32.1718 107.428 32.5555C107.34 32.9941 107.242 33.4326 107.384 33.8712C107.646 34.6606 107.515 35.4281 107.275 36.2066C106.914 37.3578 106.728 38.52 107.143 39.6932C107.406 40.4278 106.946 41.0527 106.75 41.6887C106.509 42.489 106.629 43.114 107.187 43.728C107.439 44.0021 107.679 44.2214 108.062 44.1666C108.576 44.0898 109.036 44.1117 109.375 44.5942C109.451 44.7038 109.67 44.8354 109.747 44.8025C110.654 44.3859 111.617 44.9998 112.437 44.7586C113.345 44.4955 113.925 44.9121 114.461 45.3178C116.506 46.8638 118.475 48.5084 119.427 51.0301C119.481 51.1727 119.536 51.3371 119.634 51.4139C120.914 52.4665 121.1 53.9905 121.527 55.4597C121.713 56.1175 121.8 56.7425 121.625 57.3346C121.242 58.6283 121.636 59.9988 121.177 61.2707C121.089 61.5119 121.166 61.8079 121.374 61.9395C122.238 62.4877 122.085 63.5293 122.566 64.2639C122.675 64.4284 122.73 64.6367 122.621 64.8231C121.953 65.9524 122.544 66.687 123.55 67.3668L123.496 67.3887ZM37.698 116.87C37.7198 117.769 38.0807 118.197 38.8792 118.438C39.0652 118.493 39.2402 118.613 39.3933 118.394C39.5137 118.219 39.5464 117.999 39.4261 117.835C39.087 117.363 38.6058 116.991 38.573 116.333C38.562 116.125 38.3652 115.96 38.1573 115.982C37.9604 116.004 37.8401 116.201 37.7854 116.388C37.7307 116.574 37.7089 116.771 37.698 116.859V116.87ZM5.40897 64.6257C5.02614 63.6719 4.29332 63.6061 3.65892 63.3977C3.46203 63.332 3.28701 63.4964 3.16669 63.6609C3.0245 63.8582 3.1339 64.0446 3.25422 64.1981C3.80112 64.9547 4.53394 64.7244 5.41992 64.6257H5.40897ZM2.90419 65.4919C3.75736 66.1717 4.43551 66.369 5.29962 66.2594C4.47927 65.5029 4.42457 65.4809 2.90419 65.4919ZM11.9389 59.9769C11.6983 59.9988 11.6218 60.1633 11.6436 60.3716C11.6546 60.6019 11.8405 60.7225 12.0264 60.7225C12.2124 60.7225 12.4093 60.6238 12.4093 60.3936C12.4093 60.0975 12.2124 59.9988 11.9499 59.9769H11.9389Z" fill="#F8F9F8"/>
</svg>
