<svg width="68" height="18" viewBox="0 0 68 18" fill="none" xmlns="http://www.w3.org/2000/svg">
<path d="M0.716 17V1.49H10.946V3.712H3.554V8.112H10.44V10.334H3.554V17H0.716ZM17.7151 17.22C16.5711 17.22 15.5811 16.9853 14.7451 16.516C13.9091 16.0467 13.2565 15.3793 12.7871 14.514C12.3325 13.6487 12.1051 12.622 12.1051 11.434C12.1051 10.246 12.3325 9.22667 12.7871 8.376C13.2565 7.51067 13.9091 6.84333 14.7451 6.374C15.5811 5.90467 16.5711 5.67 17.7151 5.67C18.8591 5.67 19.8491 5.90467 20.6851 6.374C21.5358 6.84333 22.1885 7.51067 22.6431 8.376C23.1125 9.22667 23.3471 10.246 23.3471 11.434C23.3471 12.622 23.1125 13.6487 22.6431 14.514C22.1885 15.3793 21.5358 16.0467 20.6851 16.516C19.8491 16.9853 18.8591 17.22 17.7151 17.22ZM17.7151 15.108C18.5805 15.108 19.2698 14.8073 19.7831 14.206C20.2965 13.59 20.5531 12.666 20.5531 11.434C20.5531 10.202 20.2965 9.28533 19.7831 8.684C19.2698 8.08267 18.5805 7.782 17.7151 7.782C16.8498 7.782 16.1605 8.08267 15.6471 8.684C15.1338 9.28533 14.8771 10.202 14.8771 11.434C14.8771 12.666 15.1338 13.59 15.6471 14.206C16.1605 14.8073 16.8498 15.108 17.7151 15.108ZM25.7187 17V0.807999H28.4687V17H25.7187ZM31.455 17V0.807999H34.205V17H31.455ZM42.2073 17.22C41.0633 17.22 40.0733 16.9853 39.2373 16.516C38.4013 16.0467 37.7486 15.3793 37.2793 14.514C36.8246 13.6487 36.5973 12.622 36.5973 11.434C36.5973 10.246 36.8246 9.22667 37.2793 8.376C37.7486 7.51067 38.4013 6.84333 39.2373 6.374C40.0733 5.90467 41.0633 5.67 42.2073 5.67C43.3513 5.67 44.3413 5.90467 45.1773 6.374C46.028 6.84333 46.6806 7.51067 47.1353 8.376C47.6046 9.22667 47.8393 10.246 47.8393 11.434C47.8393 12.622 47.6046 13.6487 47.1353 14.514C46.6806 15.3793 46.028 16.0467 45.1773 16.516C44.3413 16.9853 43.3513 17.22 42.2073 17.22ZM42.2073 15.108C43.0726 15.108 43.762 14.8073 44.2753 14.206C44.7886 13.59 45.0453 12.666 45.0453 11.434C45.0453 10.202 44.7886 9.28533 44.2753 8.684C43.762 8.08267 43.0726 7.782 42.2073 7.782C41.342 7.782 40.6526 8.08267 40.1393 8.684C39.626 9.28533 39.3693 10.202 39.3693 11.434C39.3693 12.666 39.626 13.59 40.1393 14.206C40.6526 14.8073 41.342 15.108 42.2073 15.108ZM53.076 17L48.742 5.89H51.58L54.704 14.536H54.132L57.3 5.89H59.258L62.404 14.536H61.898L65 5.89H67.684L63.35 17H60.93L57.608 8.156H58.774L55.518 17H53.076Z" fill="#FFB930"/>
</svg>
