<svg width="79" height="45" viewBox="0 0 79 45" fill="none" xmlns="http://www.w3.org/2000/svg">
<path d="M23.792 44.96C19.056 44.96 14.96 44.128 11.504 42.464C8.09067 40.7573 5.46667 38.3253 3.632 35.168C1.79733 32.0107 0.88 28.256 0.88 23.904C0.88 19.3387 1.84 15.3067 3.76 11.808C5.72267 8.30933 8.45333 5.6 11.952 3.68C15.4933 1.76 19.568 0.799999 24.176 0.799999C26.8213 0.799999 29.3173 1.09867 31.664 1.696C34.0533 2.29333 36.1653 3.14666 38 4.256L35.76 11.936C34.096 10.912 32.24 10.1227 30.192 9.568C28.144 8.97066 26.1387 8.672 24.176 8.672C21.36 8.672 18.864 9.29066 16.688 10.528C14.5547 11.7227 12.8907 13.4293 11.696 15.648C10.544 17.824 9.968 20.3627 9.968 23.264C9.968 27.5307 11.248 30.9013 13.808 33.376C16.4107 35.808 19.952 37.024 24.432 37.024C26.224 37.024 27.888 36.896 29.424 36.64L29.424 27.808H24.048V20.32H37.936V42.464C33.5413 44.128 28.8267 44.96 23.792 44.96ZM61.767 44.96C58.439 44.96 55.495 44.2347 52.935 42.784C50.4177 41.3333 48.455 39.3067 47.047 36.704C45.639 34.0587 44.935 31.008 44.935 27.552C44.935 24.096 45.6177 21.0667 46.983 18.464C48.391 15.8187 50.3537 13.7707 52.871 12.32C55.431 10.8693 58.375 10.144 61.703 10.144C65.031 10.144 67.9537 10.8693 70.471 12.32C73.031 13.728 74.9937 15.7333 76.359 18.336C77.767 20.9387 78.471 23.9467 78.471 27.36C78.471 30.816 77.767 33.888 76.359 36.576C74.9937 39.2213 73.031 41.2907 70.471 42.784C67.9537 44.2347 65.0523 44.96 61.767 44.96ZM61.703 37.152C64.007 37.152 65.8417 36.2773 67.207 34.528C68.615 32.736 69.319 30.3893 69.319 27.488C69.319 24.5867 68.615 22.2827 67.207 20.576C65.8417 18.8267 64.007 17.952 61.703 17.952C59.399 17.952 57.543 18.8267 56.135 20.576C54.7697 22.2827 54.087 24.5867 54.087 27.488C54.087 30.3893 54.7697 32.736 56.135 34.528C57.543 36.2773 59.399 37.152 61.703 37.152Z" fill="#F8F9F8"/>
</svg>
