<svg width="620" height="63" viewBox="0 0 620 63" fill="none" xmlns="http://www.w3.org/2000/svg">
<path d="M41.368 48.704C39.4053 48.1493 37.4853 47.3173 35.608 46.208C33.7733 45.0987 32.0453 43.8613 30.424 42.496L32.472 42.56C30.424 44.4373 28.0987 45.9307 25.496 47.04C22.8933 48.1493 20.1627 48.704 17.304 48.704C13.8907 48.704 10.9253 48.1707 8.408 47.104C5.93333 46.0373 4.01333 44.5653 2.648 42.688C1.32533 40.8107 0.664 38.6133 0.664 36.096C0.664 33.1947 1.51733 30.72 3.224 28.672C4.93067 26.624 7.21333 24.7893 10.072 23.168L12.312 22.016L10.84 23.808C9.09067 22.144 7.768 20.4587 6.872 18.752C5.976 17.0027 5.528 15.2107 5.528 13.376C5.528 11.1573 6.08267 9.216 7.192 7.552C8.344 5.84533 9.92267 4.52266 11.928 3.584C13.9333 2.64533 16.3013 2.176 19.032 2.176C22.5733 2.176 25.432 3.11466 27.608 4.992C29.8267 6.82667 30.936 9.32267 30.936 12.48C30.936 14.144 30.5947 15.7013 29.912 17.152C29.272 18.6027 28.248 19.968 26.84 21.248C25.432 22.4853 23.6187 23.68 21.4 24.832L21.656 22.976L32.152 33.472H30.168C31.2773 31.7227 32.1307 29.7387 32.728 27.52C33.3253 25.3013 33.688 22.976 33.816 20.544H41.816C41.6453 24.0427 41.048 27.3707 40.024 30.528C39 33.6427 37.6133 36.416 35.864 38.848L35.8 36.672C36.9947 37.8667 38.3173 38.8907 39.768 39.744C41.2187 40.5973 42.776 41.28 44.44 41.792L41.368 48.704ZM17.88 41.28C19.7573 41.28 21.4427 40.9387 22.936 40.256C24.4293 39.5733 25.7947 38.5707 27.032 37.248L26.84 39.36L13.656 26.496L17.688 26.56L15.896 27.456C14.6587 28.1813 13.6133 28.9493 12.76 29.76C11.9067 30.528 11.2667 31.3813 10.84 32.32C10.4133 33.2587 10.2 34.304 10.2 35.456C10.2 37.248 10.8613 38.6773 12.184 39.744C13.5493 40.768 15.448 41.28 17.88 41.28ZM19.032 8.576C17.5813 8.576 16.4293 9.00266 15.576 9.856C14.7227 10.6667 14.296 11.776 14.296 13.184C14.296 13.9093 14.424 14.6133 14.68 15.296C14.9787 15.9787 15.448 16.704 16.088 17.472C16.728 18.1973 17.5387 19.0933 18.52 20.16L16.344 20.224C18.8187 19.0293 20.6107 17.8773 21.72 16.768C22.872 15.6587 23.448 14.3573 23.448 12.864C23.448 11.456 23.0427 10.3893 22.232 9.664C21.4213 8.93866 20.3547 8.576 19.032 8.576ZM66.358 48V2.88H83.574C88.822 2.88 93.2593 3.776 96.886 5.568C100.513 7.36 103.243 9.94133 105.078 13.312C106.955 16.64 107.894 20.672 107.894 25.408C107.894 30.1013 106.955 34.1333 105.078 37.504C103.243 40.8747 100.513 43.4773 96.886 45.312C93.2593 47.104 88.822 48 83.574 48H66.358ZM76.342 39.808H82.998C88.0327 39.808 91.766 38.6347 94.198 36.288C96.6727 33.8987 97.91 30.272 97.91 25.408C97.91 20.5013 96.6727 16.8747 94.198 14.528C91.766 12.1813 88.0327 11.008 82.998 11.008H76.342V39.808ZM115.093 48V15.552H124.757V48H115.093ZM114.709 10.24V1.216H125.077V10.24H114.709ZM148.08 62.336C144.965 62.336 142.192 62.016 139.76 61.376C137.328 60.7787 135.152 59.8613 133.232 58.624L135.088 51.712C136.282 52.48 137.541 53.0987 138.864 53.568C140.229 54.08 141.616 54.4427 143.024 54.656C144.474 54.912 145.904 55.04 147.312 55.04C150.17 55.04 152.304 54.3573 153.712 52.992C155.12 51.6267 155.824 49.6853 155.824 47.168V40.448H156.464C155.781 42.496 154.416 44.1387 152.368 45.376C150.32 46.6133 148.016 47.232 145.456 47.232C142.554 47.232 140.016 46.5707 137.84 45.248C135.706 43.9253 134.042 42.048 132.848 39.616C131.653 37.184 131.056 34.3253 131.056 31.04C131.056 27.7547 131.653 24.896 132.848 22.464C134.042 20.032 135.706 18.176 137.84 16.896C140.016 15.5733 142.554 14.912 145.456 14.912C148.058 14.912 150.341 15.5307 152.304 16.768C154.309 17.9627 155.653 19.5627 156.336 21.568L155.824 21.312L156.464 15.552H165.808C165.637 16.96 165.509 18.3893 165.424 19.84C165.338 21.248 165.296 22.6347 165.296 24V46.08C165.296 51.328 163.824 55.3387 160.88 58.112C157.936 60.928 153.669 62.336 148.08 62.336ZM148.336 39.936C150.597 39.936 152.389 39.168 153.712 37.632C155.034 36.096 155.696 33.8987 155.696 31.04C155.696 28.1813 155.034 26.0053 153.712 24.512C152.389 22.976 150.597 22.208 148.336 22.208C145.989 22.208 144.133 22.976 142.768 24.512C141.445 26.0053 140.784 28.1813 140.784 31.04C140.784 33.8987 141.445 36.096 142.768 37.632C144.133 39.168 145.989 39.936 148.336 39.936ZM173.156 48V15.552H182.82V48H173.156ZM172.772 10.24V1.216H183.14V10.24H172.772ZM205.886 48.704C201.662 48.704 198.483 47.6587 196.35 45.568C194.217 43.4347 193.15 40.256 193.15 36.032V22.784H187.006V15.552H193.15V7.616L202.814 5.248V15.552H211.134V22.784H202.814V35.52C202.814 37.568 203.241 38.976 204.094 39.744C204.947 40.512 206.035 40.896 207.358 40.896C208.169 40.896 208.83 40.8533 209.342 40.768C209.897 40.64 210.473 40.4693 211.07 40.256V47.744C210.259 48.0853 209.406 48.32 208.51 48.448C207.614 48.6187 206.739 48.704 205.886 48.704ZM228.701 48.704C225.885 48.704 223.41 48.0213 221.277 46.656C219.144 45.2907 217.48 43.3493 216.285 40.832C215.09 38.3147 214.493 35.2853 214.493 31.744C214.493 28.2453 215.09 25.2373 216.285 22.72C217.48 20.2027 219.144 18.2827 221.277 16.96C223.41 15.5947 225.885 14.912 228.701 14.912C231.304 14.912 233.629 15.552 235.677 16.832C237.768 18.0693 239.133 19.7547 239.773 21.888H239.069L239.837 15.552H249.117C248.989 16.96 248.861 18.3893 248.733 19.84C248.648 21.248 248.605 22.6347 248.605 24V48H239.005L238.941 41.92H239.709C239.026 43.968 237.661 45.6107 235.613 46.848C233.565 48.0853 231.261 48.704 228.701 48.704ZM231.645 41.408C233.864 41.408 235.656 40.6187 237.021 39.04C238.386 37.4613 239.069 35.0293 239.069 31.744C239.069 28.4587 238.386 26.048 237.021 24.512C235.656 22.976 233.864 22.208 231.645 22.208C229.426 22.208 227.634 22.976 226.269 24.512C224.904 26.048 224.221 28.4587 224.221 31.744C224.221 35.0293 224.882 37.4613 226.205 39.04C227.57 40.6187 229.384 41.408 231.645 41.408ZM256.531 48V0.895996H266.195V48H256.531ZM310.922 48V2.88H319.69L335.37 38.08H333.322L349.002 2.88H357.706V48H348.618V17.344H351.178L337.162 48H331.402L317.322 17.344H320.01V48H310.922ZM378.951 48.704C376.135 48.704 373.66 48.0213 371.527 46.656C369.394 45.2907 367.73 43.3493 366.535 40.832C365.34 38.3147 364.743 35.2853 364.743 31.744C364.743 28.2453 365.34 25.2373 366.535 22.72C367.73 20.2027 369.394 18.2827 371.527 16.96C373.66 15.5947 376.135 14.912 378.951 14.912C381.554 14.912 383.879 15.552 385.927 16.832C388.018 18.0693 389.383 19.7547 390.023 21.888H389.319L390.087 15.552H399.367C399.239 16.96 399.111 18.3893 398.983 19.84C398.898 21.248 398.855 22.6347 398.855 24V48H389.255L389.191 41.92H389.959C389.276 43.968 387.911 45.6107 385.863 46.848C383.815 48.0853 381.511 48.704 378.951 48.704ZM381.895 41.408C384.114 41.408 385.906 40.6187 387.271 39.04C388.636 37.4613 389.319 35.0293 389.319 31.744C389.319 28.4587 388.636 26.048 387.271 24.512C385.906 22.976 384.114 22.208 381.895 22.208C379.676 22.208 377.884 22.976 376.519 24.512C375.154 26.048 374.471 28.4587 374.471 31.744C374.471 35.0293 375.132 37.4613 376.455 39.04C377.82 40.6187 379.634 41.408 381.895 41.408ZM406.717 48V24.128C406.717 22.72 406.674 21.2907 406.589 19.84C406.546 18.3893 406.439 16.96 406.269 15.552H415.549L416.637 25.024H415.165C415.591 22.72 416.274 20.8213 417.213 19.328C418.194 17.8347 419.389 16.7253 420.797 16C422.247 15.2747 423.89 14.912 425.725 14.912C426.535 14.912 427.175 14.9547 427.645 15.04C428.114 15.0827 428.583 15.1893 429.053 15.36L428.989 23.872C428.093 23.488 427.325 23.2533 426.685 23.168C426.087 23.04 425.319 22.976 424.381 22.976C422.589 22.976 421.095 23.3173 419.901 24C418.749 24.6827 417.874 25.6853 417.277 27.008C416.722 28.3307 416.445 29.9307 416.445 31.808V48H406.717ZM433.093 48V0.895996H442.757V29.056H442.885L454.917 15.552H466.437L450.885 32.832V29.312L467.269 48H455.429L442.885 33.92H442.757V48H433.093ZM485.663 48.704C480.031 48.704 475.636 47.1893 472.479 44.16C469.322 41.1307 467.743 37.0133 467.743 31.808C467.743 28.4373 468.404 25.4933 469.727 22.976C471.092 20.4587 472.97 18.496 475.359 17.088C477.791 15.6373 480.628 14.912 483.871 14.912C487.071 14.912 489.738 15.5947 491.871 16.96C494.047 18.3253 495.668 20.2453 496.735 22.72C497.844 25.152 498.399 27.9893 498.399 31.232V33.472H475.679V28.672H491.359L490.271 29.568C490.271 26.88 489.716 24.8533 488.607 23.488C487.54 22.08 485.983 21.376 483.935 21.376C481.674 21.376 479.924 22.208 478.687 23.872C477.492 25.536 476.895 27.9253 476.895 31.04V32.064C476.895 35.2213 477.663 37.568 479.199 39.104C480.778 40.64 483.039 41.408 485.983 41.408C487.732 41.408 489.375 41.1947 490.911 40.768C492.49 40.2987 493.983 39.5733 495.391 38.592L498.079 44.992C496.458 46.1867 494.58 47.104 492.447 47.744C490.356 48.384 488.095 48.704 485.663 48.704ZM519.511 48.704C515.287 48.704 512.108 47.6587 509.975 45.568C507.842 43.4347 506.775 40.256 506.775 36.032V22.784H500.631V15.552H506.775V7.616L516.439 5.248V15.552H524.759V22.784H516.439V35.52C516.439 37.568 516.866 38.976 517.719 39.744C518.572 40.512 519.66 40.896 520.983 40.896C521.794 40.896 522.455 40.8533 522.967 40.768C523.522 40.64 524.098 40.4693 524.695 40.256V47.744C523.884 48.0853 523.031 48.32 522.135 48.448C521.239 48.6187 520.364 48.704 519.511 48.704ZM529.718 48V15.552H539.382V48H529.718ZM529.334 10.24V1.216H539.702V10.24H529.334ZM547.281 48V24C547.281 22.6347 547.238 21.248 547.153 19.84C547.067 18.3893 546.939 16.96 546.769 15.552H556.049L556.753 21.568H555.985C557.051 19.4347 558.566 17.792 560.529 16.64C562.491 15.488 564.774 14.912 567.377 14.912C571.174 14.912 574.011 16.0213 575.889 18.24C577.809 20.416 578.769 23.808 578.769 28.416V48H569.105V28.864C569.105 26.5173 568.678 24.8533 567.825 23.872C566.971 22.8907 565.691 22.4 563.985 22.4C561.851 22.4 560.145 23.0827 558.865 24.448C557.585 25.7707 556.945 27.5627 556.945 29.824V48H547.281ZM601.955 62.336C598.84 62.336 596.067 62.016 593.635 61.376C591.203 60.7787 589.027 59.8613 587.107 58.624L588.963 51.712C590.157 52.48 591.416 53.0987 592.739 53.568C594.104 54.08 595.491 54.4427 596.899 54.656C598.349 54.912 599.779 55.04 601.187 55.04C604.045 55.04 606.179 54.3573 607.587 52.992C608.995 51.6267 609.699 49.6853 609.699 47.168V40.448H610.339C609.656 42.496 608.291 44.1387 606.243 45.376C604.195 46.6133 601.891 47.232 599.331 47.232C596.429 47.232 593.891 46.5707 591.715 45.248C589.581 43.9253 587.917 42.048 586.723 39.616C585.528 37.184 584.931 34.3253 584.931 31.04C584.931 27.7547 585.528 24.896 586.723 22.464C587.917 20.032 589.581 18.176 591.715 16.896C593.891 15.5733 596.429 14.912 599.331 14.912C601.933 14.912 604.216 15.5307 606.179 16.768C608.184 17.9627 609.528 19.5627 610.211 21.568L609.699 21.312L610.339 15.552H619.683C619.512 16.96 619.384 18.3893 619.299 19.84C619.213 21.248 619.171 22.6347 619.171 24V46.08C619.171 51.328 617.699 55.3387 614.755 58.112C611.811 60.928 607.544 62.336 601.955 62.336ZM602.211 39.936C604.472 39.936 606.264 39.168 607.587 37.632C608.909 36.096 609.571 33.8987 609.571 31.04C609.571 28.1813 608.909 26.0053 607.587 24.512C606.264 22.976 604.472 22.208 602.211 22.208C599.864 22.208 598.008 22.976 596.643 24.512C595.32 26.0053 594.659 28.1813 594.659 31.04C594.659 33.8987 595.32 36.096 596.643 37.632C598.008 39.168 599.864 39.936 602.211 39.936Z" fill="#0C160B"/>
</svg>
