<svg width="105" height="44" viewBox="0 0 105 44" fill="none" xmlns="http://www.w3.org/2000/svg">
<path d="M16.064 0.375999H27.2L43.008 43H33.408L29.952 33.272L13.184 33.272L9.92 43H0.448L16.064 0.375999ZM27.2 25.336L21.44 9.016L15.872 25.336L27.2 25.336ZM57.1335 43.96C55.0428 43.96 53.0162 43.7467 51.0535 43.32C49.1335 42.8933 47.4908 42.3173 46.1255 41.592L46.9575 33.912C48.4082 34.808 50.0082 35.5333 51.7575 36.088C53.5068 36.6427 55.1495 36.92 56.6855 36.92C58.1362 36.92 59.3522 36.664 60.3335 36.152C61.3148 35.5973 61.8055 34.808 61.8055 33.784C61.8055 32.9733 61.4642 32.3547 60.7815 31.928C60.0988 31.4587 58.7975 30.8827 56.8775 30.2L55.1495 29.56C53.3148 28.8773 51.8215 28.2373 50.6695 27.64C49.5175 27 48.4722 26.04 47.5335 24.76C46.5948 23.48 46.1255 21.7947 46.1255 19.704C46.1255 16.376 47.3628 13.7947 49.8375 11.96C52.3548 10.0827 55.6188 9.144 59.6295 9.144C62.7868 9.144 66.1148 9.76266 69.6135 11L68.3975 18.616C67.1602 17.8907 65.7522 17.3147 64.1735 16.888C62.6375 16.4187 61.1868 16.184 59.8215 16.184C58.4135 16.184 57.2828 16.4187 56.4295 16.888C55.6188 17.3573 55.2135 18.04 55.2135 18.936C55.2135 19.7893 55.5548 20.4293 56.2375 20.856C56.9202 21.2827 58.0722 21.7733 59.6935 22.328C60.9735 22.7973 61.7202 23.0747 61.9335 23.16C63.7255 23.8853 65.2188 24.5893 66.4135 25.272C67.6082 25.9547 68.6535 26.9787 69.5495 28.344C70.4455 29.6667 70.8935 31.3733 70.8935 33.464C70.8935 36.9627 69.6348 39.5867 67.1175 41.336C64.6002 43.0853 61.2722 43.96 57.1335 43.96ZM86.821 43.96C83.4077 43.96 80.6983 42.5093 78.693 39.608C76.6877 36.7067 75.685 32.76 75.685 27.768C75.685 21.7093 77.221 17.1013 80.293 13.944C83.365 10.744 87.781 9.144 93.541 9.144C96.7837 9.144 100.581 9.656 104.933 10.68L104.933 43H96.357L96.549 37.752H96.293C95.1837 39.7573 93.8183 41.2933 92.197 42.36C90.6183 43.4267 88.8263 43.96 86.821 43.96ZM88.741 36.088C90.0637 36.088 91.365 35.384 92.645 33.976C93.925 32.568 95.1197 30.6907 96.229 28.344L96.229 17.592C94.8637 17.208 93.4983 17.016 92.133 17.016C89.573 17.016 87.6317 17.8907 86.309 19.64C85.029 21.3893 84.389 23.9707 84.389 27.384C84.389 30.072 84.773 32.2053 85.541 33.784C86.309 35.32 87.3757 36.088 88.741 36.088Z" fill="#FFB930"/>
</svg>
