<svg width="111" height="17" viewBox="0 0 111 17" fill="none" xmlns="http://www.w3.org/2000/svg">
<path d="M7.932 16.22C6.31867 16.22 4.93267 15.8973 3.774 15.252C2.63 14.592 1.75 13.668 1.134 12.48C0.518 11.2773 0.21 9.862 0.21 8.234C0.21 6.606 0.518 5.198 1.134 4.01C1.75 2.822 2.63 1.90533 3.774 1.26C4.93267 0.599999 6.31867 0.269999 7.932 0.269999C9.01733 0.269999 9.99267 0.423999 10.858 0.732C11.738 1.04 12.4933 1.49467 13.124 2.096L12.2 4.34C11.5107 3.78267 10.8433 3.38667 10.198 3.152C9.56733 2.90267 8.84133 2.778 8.02 2.778C6.45067 2.778 5.248 3.25467 4.412 4.208C3.59067 5.14667 3.18 6.48867 3.18 8.234C3.18 9.97933 3.59067 11.3287 4.412 12.282C5.248 13.2353 6.45067 13.712 8.02 13.712C8.84133 13.712 9.56733 13.5947 10.198 13.36C10.8433 13.1107 11.5107 12.7 12.2 12.128L13.124 14.372C12.4933 14.9587 11.738 15.4133 10.858 15.736C9.99267 16.0587 9.01733 16.22 7.932 16.22ZM19.7991 16.22C18.6551 16.22 17.6651 15.9853 16.8291 15.516C15.9931 15.0467 15.3404 14.3793 14.8711 13.514C14.4164 12.6487 14.1891 11.622 14.1891 10.434C14.1891 9.246 14.4164 8.22667 14.8711 7.376C15.3404 6.51067 15.9931 5.84333 16.8291 5.374C17.6651 4.90467 18.6551 4.67 19.7991 4.67C20.9431 4.67 21.9331 4.90467 22.7691 5.374C23.6198 5.84333 24.2724 6.51067 24.7271 7.376C25.1964 8.22667 25.4311 9.246 25.4311 10.434C25.4311 11.622 25.1964 12.6487 24.7271 13.514C24.2724 14.3793 23.6198 15.0467 22.7691 15.516C21.9331 15.9853 20.9431 16.22 19.7991 16.22ZM19.7991 14.108C20.6644 14.108 21.3538 13.8073 21.8671 13.206C22.3804 12.59 22.6371 11.666 22.6371 10.434C22.6371 9.202 22.3804 8.28533 21.8671 7.684C21.3538 7.08267 20.6644 6.782 19.7991 6.782C18.9338 6.782 18.2444 7.08267 17.7311 7.684C17.2178 8.28533 16.9611 9.202 16.9611 10.434C16.9611 11.666 17.2178 12.59 17.7311 13.206C18.2444 13.8073 18.9338 14.108 19.7991 14.108ZM27.8026 16V7.662C27.8026 7.20733 27.788 6.74533 27.7586 6.276C27.7293 5.80667 27.6853 5.34467 27.6266 4.89H30.2886L30.5086 7.09H30.2446C30.5966 6.31267 31.1173 5.71867 31.8066 5.308C32.496 4.88267 33.2953 4.67 34.2046 4.67C35.51 4.67 36.4926 5.03667 37.1526 5.77C37.8126 6.50333 38.1426 7.64733 38.1426 9.202V16H35.3926V9.334C35.3926 8.43933 35.2166 7.80133 34.8646 7.42C34.5273 7.024 34.014 6.826 33.3246 6.826C32.474 6.826 31.7993 7.09 31.3006 7.618C30.802 8.146 30.5526 8.85 30.5526 9.73V16H27.8026ZM45.8105 16.22C44.4905 16.22 43.4932 15.8753 42.8185 15.186C42.1438 14.4967 41.8065 13.4627 41.8065 12.084V6.958H39.6725V4.89H41.8065V2.052L44.5565 1.348V4.89H47.5265V6.958H44.5565V11.908C44.5565 12.6707 44.7032 13.206 44.9965 13.514C45.2898 13.822 45.6932 13.976 46.2065 13.976C46.4852 13.976 46.7198 13.954 46.9105 13.91C47.1158 13.866 47.3138 13.8073 47.5045 13.734V15.912C47.2552 16.0147 46.9765 16.088 46.6685 16.132C46.3752 16.1907 46.0892 16.22 45.8105 16.22ZM53.6844 16.22C52.7164 16.22 51.8658 15.9927 51.1324 15.538C50.3991 15.0687 49.8271 14.4013 49.4164 13.536C49.0058 12.6707 48.8004 11.6367 48.8004 10.434C48.8004 9.23133 49.0058 8.20467 49.4164 7.354C49.8271 6.48867 50.3991 5.82867 51.1324 5.374C51.8658 4.90467 52.7164 4.67 53.6844 4.67C54.6231 4.67 55.4444 4.90467 56.1484 5.374C56.8671 5.82867 57.3438 6.44467 57.5784 7.222H57.3364L57.5784 4.89H60.2184C60.1744 5.34467 60.1304 5.80667 60.0864 6.276C60.0571 6.74533 60.0424 7.20733 60.0424 7.662V16H57.3144L57.2924 13.712H57.5564C57.3218 14.4747 56.8451 15.0833 56.1264 15.538C55.4078 15.9927 54.5938 16.22 53.6844 16.22ZM54.4544 14.108C55.3198 14.108 56.0164 13.8073 56.5444 13.206C57.0724 12.59 57.3364 11.666 57.3364 10.434C57.3364 9.202 57.0724 8.28533 56.5444 7.684C56.0164 7.08267 55.3198 6.782 54.4544 6.782C53.5891 6.782 52.8924 7.08267 52.3644 7.684C51.8364 8.28533 51.5724 9.202 51.5724 10.434C51.5724 11.666 51.8291 12.59 52.3424 13.206C52.8704 13.8073 53.5744 14.108 54.4544 14.108ZM68.141 16.22C66.997 16.22 65.9923 15.9853 65.127 15.516C64.2763 15.0467 63.6163 14.3793 63.147 13.514C62.6777 12.634 62.443 11.5927 62.443 10.39C62.443 9.18733 62.6777 8.16067 63.147 7.31C63.631 6.45933 64.2983 5.80667 65.149 5.352C65.9997 4.89733 66.997 4.67 68.141 4.67C68.8743 4.67 69.5857 4.78733 70.275 5.022C70.979 5.242 71.551 5.56467 71.991 5.99L71.155 7.904C70.759 7.53733 70.3117 7.266 69.813 7.09C69.329 6.89933 68.8523 6.804 68.383 6.804C67.4003 6.804 66.6303 7.112 66.073 7.728C65.5303 8.344 65.259 9.23867 65.259 10.412C65.259 11.5853 65.5303 12.4873 66.073 13.118C66.6303 13.7487 67.4003 14.064 68.383 14.064C68.8377 14.064 69.307 13.976 69.791 13.8C70.2897 13.624 70.7443 13.3527 71.155 12.986L71.991 14.878C71.5363 15.3033 70.957 15.6333 70.253 15.868C69.5637 16.1027 68.8597 16.22 68.141 16.22ZM78.9179 16.22C77.5979 16.22 76.6006 15.8753 75.9259 15.186C75.2513 14.4967 74.9139 13.4627 74.9139 12.084V6.958H72.7799V4.89H74.9139V2.052L77.6639 1.348V4.89H80.6339V6.958H77.6639V11.908C77.6639 12.6707 77.8106 13.206 78.1039 13.514C78.3973 13.822 78.8006 13.976 79.3139 13.976C79.5926 13.976 79.8273 13.954 80.0179 13.91C80.2233 13.866 80.4213 13.8073 80.6119 13.734V15.912C80.3626 16.0147 80.0839 16.088 79.7759 16.132C79.4826 16.1907 79.1966 16.22 78.9179 16.22ZM92.543 16.22C91.179 16.22 90.1596 15.846 89.485 15.098C88.8103 14.35 88.473 13.206 88.473 11.666V4.89H91.223V11.644C91.223 12.4653 91.3916 13.074 91.729 13.47C92.0663 13.8513 92.5796 14.042 93.269 14.042C94.0463 14.042 94.677 13.778 95.161 13.25C95.6596 12.722 95.909 12.0253 95.909 11.16V4.89H98.659V16H95.975V13.734H96.283C95.9603 14.526 95.469 15.142 94.809 15.582C94.1636 16.0073 93.4083 16.22 92.543 16.22ZM105.604 16.22C104.651 16.22 103.771 16.11 102.964 15.89C102.172 15.6553 101.505 15.3327 100.962 14.922L101.732 13.074C102.29 13.4553 102.906 13.7487 103.58 13.954C104.255 14.1593 104.937 14.262 105.626 14.262C106.36 14.262 106.902 14.1373 107.254 13.888C107.621 13.6387 107.804 13.3013 107.804 12.876C107.804 12.5387 107.687 12.2747 107.452 12.084C107.232 11.8787 106.873 11.7247 106.374 11.622L104.174 11.204C103.236 10.9987 102.517 10.6467 102.018 10.148C101.534 9.64933 101.292 8.99667 101.292 8.19C101.292 7.50067 101.476 6.892 101.842 6.364C102.224 5.836 102.759 5.42533 103.448 5.132C104.152 4.824 104.974 4.67 105.912 4.67C106.734 4.67 107.504 4.78 108.222 5C108.956 5.22 109.572 5.55 110.07 5.99L109.278 7.772C108.824 7.40533 108.303 7.11933 107.716 6.914C107.13 6.70867 106.558 6.606 106 6.606C105.238 6.606 104.68 6.74533 104.328 7.024C103.976 7.288 103.8 7.63267 103.8 8.058C103.8 8.38067 103.903 8.652 104.108 8.872C104.328 9.07733 104.666 9.23133 105.12 9.334L107.32 9.752C108.303 9.94267 109.044 10.28 109.542 10.764C110.056 11.2333 110.312 11.8787 110.312 12.7C110.312 13.4333 110.114 14.064 109.718 14.592C109.322 15.12 108.772 15.5233 108.068 15.802C107.364 16.0807 106.543 16.22 105.604 16.22Z" fill="#FFB930"/>
</svg>
