<svg width="412" height="123" viewBox="0 0 412 123" fill="none" xmlns="http://www.w3.org/2000/svg">
<path d="M0.216001 94V3.75999H34.648C45.144 3.75999 54.0187 5.55199 61.272 9.13599C68.5253 12.72 73.9867 17.8827 77.656 24.624C81.4107 31.28 83.288 39.344 83.288 48.816C83.288 58.2027 81.4107 66.2667 77.656 73.008C73.9867 79.7493 68.5253 84.9547 61.272 88.624C54.0187 92.208 45.144 94 34.648 94H0.216001ZM20.184 77.616H33.496C43.5653 77.616 51.032 75.2693 55.896 70.576C60.8453 65.7973 63.32 58.544 63.32 48.816C63.32 39.0027 60.8453 31.7493 55.896 27.056C51.032 22.3627 43.5653 20.016 33.496 20.016H20.184V77.616ZM130.326 95.408C119.062 95.408 110.273 92.3787 103.958 86.32C97.6433 80.2613 94.486 72.0267 94.486 61.616C94.486 54.8747 95.8087 48.9867 98.454 43.952C101.185 38.9173 104.939 34.992 109.718 32.176C114.582 29.2747 120.257 27.824 126.742 27.824C133.142 27.824 138.475 29.1893 142.742 31.92C147.094 34.6507 150.337 38.4907 152.47 43.44C154.689 48.304 155.798 53.9787 155.798 60.464V64.944H110.358V55.344H141.718L139.542 57.136C139.542 51.76 138.433 47.7067 136.214 44.976C134.081 42.16 130.966 40.752 126.87 40.752C122.347 40.752 118.849 42.416 116.374 45.744C113.985 49.072 112.79 53.8507 112.79 60.08V62.128C112.79 68.4427 114.326 73.136 117.398 76.208C120.555 79.28 125.078 80.816 130.966 80.816C134.465 80.816 137.75 80.3893 140.822 79.536C143.979 78.5973 146.966 77.1467 149.782 75.184L155.158 87.984C151.915 90.3733 148.161 92.208 143.894 93.488C139.713 94.768 135.19 95.408 130.326 95.408ZM191.997 95.408C186.194 95.408 180.904 94.768 176.125 93.488C171.346 92.208 167.293 90.416 163.965 88.112L168.957 75.312C172.285 77.36 175.954 78.9813 179.965 80.176C184.061 81.3707 188.114 81.968 192.125 81.968C195.88 81.968 198.653 81.3707 200.445 80.176C202.237 78.9813 203.133 77.36 203.133 75.312C203.133 73.6053 202.536 72.2827 201.341 71.344C200.232 70.4053 198.482 69.7227 196.093 69.296L182.909 66.864C177.362 65.7547 173.138 63.7067 170.237 60.72C167.336 57.7333 165.885 53.8507 165.885 49.072C165.885 44.8907 166.994 41.2213 169.213 38.064C171.517 34.8213 174.802 32.304 179.069 30.512C183.336 28.72 188.328 27.824 194.045 27.824C198.909 27.824 203.517 28.4213 207.869 29.616C212.221 30.8107 215.933 32.6453 219.005 35.12L213.757 47.536C211.112 45.5733 208.04 43.9947 204.541 42.8C201.128 41.6053 197.842 41.008 194.685 41.008C190.589 41.008 187.645 41.6907 185.853 43.056C184.061 44.336 183.165 46 183.165 48.048C183.165 49.584 183.677 50.864 184.701 51.888C185.81 52.912 187.474 53.68 189.693 54.192L203.005 56.624C208.722 57.648 213.074 59.568 216.061 62.384C219.048 65.2 220.541 69.0827 220.541 74.032C220.541 78.5547 219.346 82.3947 216.957 85.552C214.568 88.7093 211.197 91.1413 206.845 92.848C202.578 94.5547 197.629 95.408 191.997 95.408ZM232.561 94V29.104H251.889V94H232.561ZM231.793 18.48V0.431999H252.529V18.48H231.793ZM298.534 122.672C292.305 122.672 286.758 122.032 281.894 120.752C277.03 119.557 272.678 117.723 268.838 115.248L272.55 101.424C274.939 102.96 277.457 104.197 280.102 105.136C282.833 106.16 285.606 106.885 288.422 107.312C291.323 107.824 294.182 108.08 296.998 108.08C302.715 108.08 306.982 106.715 309.798 103.984C312.614 101.253 314.022 97.3707 314.022 92.336V78.896H315.302C313.937 82.992 311.206 86.2773 307.11 88.752C303.014 91.2267 298.406 92.464 293.286 92.464C287.483 92.464 282.406 91.1413 278.054 88.496C273.787 85.8507 270.459 82.096 268.07 77.232C265.681 72.368 264.486 66.6507 264.486 60.08C264.486 53.5093 265.681 47.792 268.07 42.928C270.459 38.064 273.787 34.352 278.054 31.792C282.406 29.1467 287.483 27.824 293.286 27.824C298.491 27.824 303.057 29.0613 306.982 31.536C310.993 33.9253 313.681 37.1253 315.046 41.136L314.022 40.624L315.302 29.104H333.99C333.649 31.92 333.393 34.7787 333.222 37.68C333.051 40.496 332.966 43.2693 332.966 46V90.16C332.966 100.656 330.022 108.677 324.134 114.224C318.246 119.856 309.713 122.672 298.534 122.672ZM299.046 77.872C303.569 77.872 307.153 76.336 309.798 73.264C312.443 70.192 313.766 65.7973 313.766 60.08C313.766 54.3627 312.443 50.0107 309.798 47.024C307.153 43.952 303.569 42.416 299.046 42.416C294.353 42.416 290.641 43.952 287.91 47.024C285.265 50.0107 283.942 54.3627 283.942 60.08C283.942 65.7973 285.265 70.192 287.91 73.264C290.641 76.336 294.353 77.872 299.046 77.872ZM348.686 94V46C348.686 43.2693 348.601 40.496 348.43 37.68C348.259 34.7787 348.003 31.92 347.662 29.104H366.222L367.63 41.136H366.094C368.227 36.8693 371.257 33.584 375.182 31.28C379.107 28.976 383.673 27.824 388.878 27.824C396.473 27.824 402.147 30.0427 405.902 34.48C409.742 38.832 411.662 45.616 411.662 54.832V94H392.334V55.728C392.334 51.0347 391.481 47.7067 389.774 45.744C388.067 43.7813 385.507 42.8 382.094 42.8C377.827 42.8 374.414 44.1653 371.854 46.896C369.294 49.5413 368.014 53.1253 368.014 57.648V94H348.686Z" fill="#0C160B"/>
</svg>
