<svg width="165" height="22" viewBox="0 0 165 22" fill="none" xmlns="http://www.w3.org/2000/svg">
<path d="M6.832 21V4.228H0.308V1.26H16.968V4.228H10.444V21H6.832ZM19.5199 21V1.26H23.1319V9.492H33.2399V1.26H36.8519V21H33.2399V12.488H23.1319V21H19.5199ZM39.0195 21L47.9515 1.26H50.9755L60.0195 21H56.3515L53.9435 15.456L55.3995 16.436H43.5555L45.0675 15.456L42.6595 21H39.0195ZM49.4355 5.124L45.4875 14.476L44.7595 13.608H54.1675L53.5795 14.476L49.5475 5.124H49.4355ZM62.2035 21V1.26H64.9195L76.3715 16.072H75.6435V1.26H79.0035V21H76.2875L64.8635 6.188H65.5635V21H62.2035ZM83.3403 21V1.26H86.9523V9.996H87.0083L95.6043 1.26H99.9723L89.6683 11.536L89.6963 9.968L100.644 21H96.1363L87.0083 11.872H86.9523V21H83.3403ZM114.488 21V11.676L115.244 13.832L106.76 1.26H110.932L116.756 10.22H115.972L121.796 1.26H125.828L117.372 13.832L118.1 11.676V21H114.488ZM125.435 11.116C125.435 9.044 125.808 7.252 126.555 5.74C127.32 4.228 128.412 3.06133 129.831 2.24C131.249 1.4 132.939 0.979999 134.899 0.979999C136.84 0.979999 138.52 1.4 139.939 2.24C141.357 3.06133 142.449 4.228 143.215 5.74C143.999 7.252 144.391 9.03467 144.391 11.088C144.391 13.16 143.999 14.9613 143.215 16.492C142.449 18.004 141.357 19.18 139.939 20.02C138.52 20.86 136.84 21.28 134.899 21.28C132.939 21.28 131.249 20.86 129.831 20.02C128.431 19.18 127.348 18.004 126.583 16.492C125.817 14.9613 125.435 13.1693 125.435 11.116ZM129.215 11.116C129.215 13.3373 129.691 15.0733 130.643 16.324C131.595 17.5747 133.013 18.2 134.899 18.2C136.728 18.2 138.137 17.5747 139.127 16.324C140.116 15.0733 140.611 13.3373 140.611 11.116C140.611 8.876 140.116 7.14 139.127 5.908C138.156 4.676 136.747 4.06 134.899 4.06C133.013 4.06 131.595 4.676 130.643 5.908C129.691 7.14 129.215 8.876 129.215 11.116ZM156.35 21.28C153.531 21.28 151.431 20.58 150.05 19.18C148.687 17.7613 148.006 15.6707 148.006 12.908V1.26H151.618V12.88C151.618 14.6347 151.991 15.96 152.738 16.856C153.503 17.752 154.707 18.2 156.35 18.2C157.918 18.2 159.094 17.752 159.878 16.856C160.68 15.96 161.082 14.6347 161.082 12.88V1.26H164.638V12.908C164.638 15.6707 163.938 17.7613 162.538 19.18C161.156 20.58 159.094 21.28 156.35 21.28Z" fill="#0C160B"/>
</svg>
